<svg width="326" height="42" viewBox="0 0 326 42" fill="none" xmlns="http://www.w3.org/2000/svg">
<path d="M21.64 41L19.912 33.848H10.216L8.53601 41H0.376007L10.408 7.736H19.96L29.992 41H21.64ZM11.56 28.136H18.568L15.064 13.448L11.56 28.136Z" fill="#141414"/>
<path d="M39.0565 41.816C36.8485 41.816 35.1205 41.192 33.8725 39.944C32.6565 38.664 32.0485 36.856 32.0485 34.52V5.384L39.6325 4.568V34.232C39.6325 35.288 40.0645 35.816 40.9285 35.816C41.3765 35.816 41.7925 35.736 42.1765 35.576L43.6645 40.952C42.2885 41.528 40.7525 41.816 39.0565 41.816Z" fill="#141414"/>
<path d="M54.1225 15.512V41H46.5385V15.512H54.1225ZM53.7865 0.919998L56.7625 6.584L45.4345 11.144L43.3225 7.256L53.7865 0.919998Z" fill="#141414"/>
<path d="M71.1254 14.696C72.8854 14.696 74.4694 14.952 75.8774 15.464C77.2854 15.976 78.6134 16.76 79.8614 17.816L76.5974 22.328C74.9974 21.112 73.3814 20.504 71.7494 20.504C70.0534 20.504 68.7734 21.128 67.9094 22.376C67.0454 23.624 66.6134 25.64 66.6134 28.424C66.6134 31.112 67.0454 33.016 67.9094 34.136C68.7734 35.256 70.0214 35.816 71.6534 35.816C72.5174 35.816 73.3014 35.688 74.0054 35.432C74.7094 35.144 75.5574 34.696 76.5494 34.088L79.8614 38.792C77.3334 40.808 74.4694 41.816 71.2694 41.816C68.6774 41.816 66.4374 41.272 64.5494 40.184C62.6614 39.064 61.2054 37.512 60.1814 35.528C59.1574 33.512 58.6454 31.16 58.6454 28.472C58.6454 25.784 59.1574 23.4 60.1814 21.32C61.2054 19.24 62.6614 17.624 64.5494 16.472C66.4374 15.288 68.6294 14.696 71.1254 14.696Z" fill="#141414"/>
<path d="M90.6381 15.512V41H83.0541V15.512H90.6381ZM86.7981 2.072C88.1101 2.072 89.1821 2.488 90.0141 3.32C90.8781 4.12 91.3101 5.144 91.3101 6.392C91.3101 7.64 90.8781 8.68 90.0141 9.512C89.1821 10.312 88.1101 10.712 86.7981 10.712C85.4861 10.712 84.4141 10.312 83.5821 9.512C82.7501 8.68 82.3341 7.64 82.3341 6.392C82.3341 5.144 82.7501 4.12 83.5821 3.32C84.4141 2.488 85.4861 2.072 86.7981 2.072Z" fill="#141414"/>
<path d="M116.857 33.608C116.857 34.568 116.985 35.272 117.241 35.72C117.529 36.168 117.977 36.504 118.585 36.728L117.001 41.672C115.433 41.544 114.153 41.208 113.161 40.664C112.169 40.088 111.401 39.192 110.857 37.976C109.193 40.536 106.633 41.816 103.177 41.816C100.649 41.816 98.633 41.08 97.129 39.608C95.625 38.136 94.873 36.216 94.873 33.848C94.873 31.064 95.897 28.936 97.945 27.464C99.993 25.992 102.953 25.256 106.825 25.256H109.417V24.152C109.417 22.648 109.097 21.624 108.457 21.08C107.817 20.504 106.697 20.216 105.097 20.216C104.265 20.216 103.257 20.344 102.073 20.6C100.889 20.824 99.673 21.144 98.425 21.56L96.697 16.568C98.297 15.96 99.929 15.496 101.593 15.176C103.289 14.856 104.857 14.696 106.297 14.696C109.945 14.696 112.617 15.448 114.313 16.952C116.009 18.456 116.857 20.712 116.857 23.72V33.608ZM105.385 36.392C107.113 36.392 108.457 35.576 109.417 33.944V29.432H107.545C105.817 29.432 104.521 29.736 103.657 30.344C102.825 30.952 102.409 31.896 102.409 33.176C102.409 34.2 102.665 35 103.177 35.576C103.721 36.12 104.457 36.392 105.385 36.392Z" fill="#141414"/>
<path d="M152.145 23.384C154.353 23.8 156.145 24.616 157.521 25.832C158.929 27.048 159.633 28.872 159.633 31.304C159.633 34.856 158.353 37.368 155.793 38.84C153.265 40.28 149.713 41 145.137 41H134.433V7.736H143.84C148.512 7.736 152.081 8.408 154.545 9.752C157.009 11.064 158.241 13.224 158.241 16.232C158.241 18.184 157.649 19.768 156.465 20.984C155.313 22.168 153.873 22.968 152.145 23.384ZM142.305 13.304V21.032H145.233C148.561 21.032 150.225 19.688 150.225 17C150.225 15.656 149.777 14.712 148.881 14.168C147.985 13.592 146.561 13.304 144.609 13.304H142.305ZM145.185 35.288C147.265 35.288 148.833 34.984 149.889 34.376C150.977 33.736 151.521 32.568 151.521 30.872C151.521 27.8 149.601 26.264 145.761 26.264H142.305V35.288H145.185Z" fill="#141414"/>
<path d="M177.738 14.792C178.666 14.792 179.514 14.904 180.282 15.128L179.082 22.472C178.122 22.248 177.354 22.136 176.778 22.136C175.274 22.136 174.122 22.664 173.322 23.72C172.554 24.744 171.946 26.296 171.498 28.376V41H163.914V15.512H170.538L171.162 20.456C171.738 18.696 172.602 17.32 173.754 16.328C174.938 15.304 176.266 14.792 177.738 14.792Z" fill="#141414"/>
<path d="M201.748 33.608C201.748 34.568 201.876 35.272 202.132 35.72C202.42 36.168 202.868 36.504 203.476 36.728L201.892 41.672C200.324 41.544 199.044 41.208 198.052 40.664C197.06 40.088 196.292 39.192 195.748 37.976C194.084 40.536 191.524 41.816 188.068 41.816C185.54 41.816 183.524 41.08 182.02 39.608C180.516 38.136 179.764 36.216 179.764 33.848C179.764 31.064 180.788 28.936 182.836 27.464C184.884 25.992 187.844 25.256 191.716 25.256H194.308V24.152C194.308 22.648 193.988 21.624 193.348 21.08C192.708 20.504 191.588 20.216 189.988 20.216C189.156 20.216 188.148 20.344 186.964 20.6C185.78 20.824 184.564 21.144 183.316 21.56L181.588 16.568C183.188 15.96 184.82 15.496 186.484 15.176C188.18 14.856 189.748 14.696 191.188 14.696C194.836 14.696 197.508 15.448 199.204 16.952C200.9 18.456 201.748 20.712 201.748 23.72V33.608ZM190.276 36.392C192.004 36.392 193.348 35.576 194.308 33.944V29.432H192.436C190.708 29.432 189.412 29.736 188.548 30.344C187.716 30.952 187.3 31.896 187.3 33.176C187.3 34.2 187.556 35 188.068 35.576C188.612 36.12 189.348 36.392 190.276 36.392Z" fill="#141414"/>
<path d="M222.717 14.696C224.925 14.696 226.653 15.368 227.901 16.712C229.149 18.056 229.773 19.944 229.773 22.376V41H222.189V23.672C222.189 22.392 221.981 21.512 221.565 21.032C221.181 20.52 220.589 20.264 219.789 20.264C218.253 20.264 216.781 21.368 215.373 23.576V41H207.789V15.512H214.413L214.941 18.536C216.029 17.256 217.197 16.296 218.445 15.656C219.725 15.016 221.149 14.696 222.717 14.696Z" fill="#141414"/>
<path d="M258.34 5.384V41H251.62L251.236 38.024C249.444 40.552 247.028 41.816 243.988 41.816C240.82 41.816 238.404 40.6 236.74 38.168C235.108 35.736 234.292 32.408 234.292 28.184C234.292 25.592 234.724 23.272 235.588 21.224C236.452 19.176 237.668 17.576 239.236 16.424C240.836 15.272 242.66 14.696 244.708 14.696C247.14 14.696 249.156 15.496 250.756 17.096V4.568L258.34 5.384ZM246.34 36.248C248.1 36.248 249.572 35.288 250.756 33.368V22.376C250.148 21.64 249.524 21.096 248.884 20.744C248.276 20.392 247.572 20.216 246.772 20.216C245.364 20.216 244.244 20.872 243.412 22.184C242.58 23.496 242.164 25.512 242.164 28.232C242.164 31.208 242.516 33.288 243.22 34.472C243.956 35.656 244.996 36.248 246.34 36.248Z" fill="#141414"/>
<path d="M284.529 33.608C284.529 34.568 284.657 35.272 284.913 35.72C285.201 36.168 285.649 36.504 286.257 36.728L284.673 41.672C283.105 41.544 281.825 41.208 280.833 40.664C279.841 40.088 279.073 39.192 278.529 37.976C276.865 40.536 274.305 41.816 270.849 41.816C268.321 41.816 266.305 41.08 264.801 39.608C263.297 38.136 262.545 36.216 262.545 33.848C262.545 31.064 263.569 28.936 265.617 27.464C267.665 25.992 270.625 25.256 274.497 25.256H277.089V24.152C277.089 22.648 276.769 21.624 276.129 21.08C275.489 20.504 274.369 20.216 272.769 20.216C271.937 20.216 270.929 20.344 269.745 20.6C268.561 20.824 267.345 21.144 266.097 21.56L264.369 16.568C265.969 15.96 267.601 15.496 269.265 15.176C270.961 14.856 272.529 14.696 273.969 14.696C277.617 14.696 280.289 15.448 281.985 16.952C283.681 18.456 284.529 20.712 284.529 23.72V33.608ZM273.057 36.392C274.785 36.392 276.129 35.576 277.089 33.944V29.432H275.217C273.489 29.432 272.193 29.736 271.329 30.344C270.497 30.952 270.081 31.896 270.081 33.176C270.081 34.2 270.337 35 270.849 35.576C271.393 36.12 272.129 36.392 273.057 36.392ZM277.089 10.52C276.385 10.52 275.777 10.408 275.265 10.184C274.753 9.96 274.193 9.64 273.585 9.224C272.785 8.648 272.129 8.36 271.617 8.36C271.073 8.36 270.609 8.536 270.225 8.888C269.873 9.208 269.489 9.736 269.073 10.472L265.281 8.648C265.921 6.984 266.769 5.624 267.825 4.568C268.913 3.512 270.129 2.984 271.473 2.984C272.209 2.984 272.833 3.112 273.345 3.368C273.889 3.592 274.481 3.912 275.121 4.328C275.569 4.616 275.921 4.824 276.177 4.952C276.465 5.08 276.753 5.144 277.041 5.144C277.553 5.144 277.985 4.984 278.337 4.664C278.721 4.312 279.121 3.768 279.537 3.032L283.329 4.904C282.657 6.6 281.777 7.96 280.689 8.984C279.633 10.008 278.433 10.52 277.089 10.52Z" fill="#141414"/>
<path d="M301.61 14.696C305.514 14.696 308.57 15.896 310.778 18.296C312.986 20.664 314.09 23.992 314.09 28.28C314.09 31 313.578 33.384 312.554 35.432C311.562 37.448 310.122 39.016 308.234 40.136C306.378 41.256 304.17 41.816 301.61 41.816C297.738 41.816 294.682 40.632 292.442 38.264C290.234 35.864 289.13 32.52 289.13 28.232C289.13 25.512 289.626 23.144 290.618 21.128C291.642 19.08 293.082 17.496 294.938 16.376C296.826 15.256 299.05 14.696 301.61 14.696ZM301.61 20.264C300.074 20.264 298.922 20.92 298.154 22.232C297.386 23.512 297.002 25.512 297.002 28.232C297.002 31.016 297.37 33.048 298.106 34.328C298.874 35.608 300.042 36.248 301.61 36.248C303.146 36.248 304.298 35.608 305.066 34.328C305.834 33.016 306.218 31 306.218 28.28C306.218 25.496 305.834 23.464 305.066 22.184C304.33 20.904 303.178 20.264 301.61 20.264Z" fill="#141414"/>
<path d="M320.916 33.128C322.1 33.128 323.108 33.56 323.94 34.424C324.804 35.256 325.236 36.264 325.236 37.448C325.236 38.664 324.804 39.704 323.94 40.568C323.108 41.4 322.1 41.816 320.916 41.816C319.7 41.816 318.66 41.4 317.796 40.568C316.964 39.704 316.548 38.664 316.548 37.448C316.548 36.264 316.964 35.256 317.796 34.424C318.66 33.56 319.7 33.128 320.916 33.128Z" fill="#141414"/>
</svg>
